<svg xmlns="http://www.w3.org/2000/svg" viewBox="0 0 16 16"><path d=""/><path d=""/><path d=""/><path d="M16 6.3V16H0V6.3h3.4V4.6C3.4 2 5.4 0 8 0s4.6 2 4.6 4.6v1.7H16zm-5.1-1.7C10.9 3 9.6 1.8 8 1.8S5.1 3 5.1 4.6v1.7h5.7V4.6zm-2.1 6.9c.5-.3.8-.9.8-1.4 0-.9-.7-1.6-1.6-1.6s-1.6.7-1.6 1.6c0 .6.3 1.2.8 1.5l-.6 2.8h2.9l-.7-2.9z"/><path d="M0 1.6c0-.3.4-.4.4-.4S8.9.6 8.6 6l-2 2c-1 0-3.8-.5-4.2-3.3C2.4 4.7 2 2.4.3 2c0-.1-.3-.1-.3-.4zm1 10.6L3.8 15 0 16l1-3.8zm7.2-1.6l-4 4-2.8-2.8 3.3-3.3c.5.2 1.1.3 1.5.3l2 1.8zm7.8 3.2l-1.5 1.5-7.4-6.9 2-2 6.9 7.4zM9.5 5.6c0-.6-.1-1.2-.3-1.6l2.5-2.5 2.8 2.8-3.2 3.2-1.8-1.9zm5.4-1.7l-2.8-2.8.8-.8c.5-.5 1.4-.2 2.2.6.8.8 1.1 1.7.6 2.2l-.8.8z"/><path d="M16 1.7H0L1.1 0h13.7L16 1.7zM0 2.3h16V16H0V2.3zm1.7 12h12.6V3.4H1.7v10.9zM2.3 4h11.4v2.9H2.3V4zm0 3.4h11.4v2.9H2.3V7.4zm0 3.5h11.4v2.9H2.3v-2.9zm3.4-5.2h4.6v-.6H5.7v.6zm0 3.4h4.6v-.5H5.7v.5zm0 3.5h4.6V12H5.7v.6z"/><path d="M16 2.9v2.3H0V2.9h5.3L8 0l2.7 2.9H16zM0 5.7h16V16H0V5.7zm1.7 2.9h1.1V7.4H1.7v1.2zm0 2.8h1.1v-1.1H1.7v1.1zm0 2.9h1.1v-1.1H1.7v1.1zm2.9-5.7h1.1V7.4H4.6v1.2zm0 2.8h1.1v-1.1H4.6v1.1zm0 2.9h1.1v-1.1H4.6v1.1zM6.1 2.9h3.7L8 .9l-1.9 2zm1.3 5.7h1.1V7.4H7.4v1.2zm0 2.8h1.1v-1.1H7.4v1.1zm0 2.9h1.1v-1.1H7.4v1.1zM9.7 12H12V9.7H9.7V12zm.6-3.4h1.1V7.4h-1.1v1.2zm0 1.7h1.1v1.1h-1.1v-1.1zm2.8-1.7h1.1V7.4h-1.1v1.2zm0 2.8h1.1v-1.1h-1.1v1.1z"/><path d="M16 13.1c0 1.6-1.3 2.9-2.9 2.9s-2.9-1.3-2.9-2.9V13l-5.6-2.8c-.5.4-1.1.7-1.8.7C1.3 10.9 0 9.6 0 8s1.3-2.9 2.9-2.9c.7 0 1.3.2 1.8.7L10.3 3v-.1c0-1.6 1.3-2.9 2.9-2.9S16 1.3 16 2.9s-1.3 2.9-2.9 2.9c-.7 0-1.3-.2-1.8-.7L5.7 7.9v.2l5.6 2.8c.5-.4 1.1-.7 1.8-.7 1.6.1 2.9 1.4 2.9 2.9zM4.6 8c0-.9-.8-1.7-1.7-1.7S1.1 7.1 1.1 8s.8 1.7 1.7 1.7S4.6 8.9 4.6 8zm6.8-5.1c0 .9.8 1.7 1.7 1.7s1.7-.8 1.7-1.7-.8-1.7-1.7-1.7-1.7.7-1.7 1.7zm3.5 10.2c0-.9-.8-1.7-1.7-1.7s-1.7.8-1.7 1.7.8 1.7 1.7 1.7 1.7-.7 1.7-1.7z"/><path d="M14.9 7.7c.4.8.7 1.6 1.1 2.5-4.9.6-8 5.2-13 5.8-1-2.2-2-4.5-3-6.7L1.2 9 3 13.1l.5-.1c2.6-.3 4.6-1.6 6.6-2.9 1.6-1 3.1-1.9 4.8-2.4zM3.5 12.3c-1-2.2-2-4.5-3-6.7C5.3 5.1 8.2.5 13 0c1 2.2 2 4.5 3 6.7-4.8.5-7.7 5.1-12.5 5.6zm-.7-4.7C5.1 7 7 5.5 9.1 4.2c-.1-.1-.2-.3-.2-.4-2 1.3-4 2.8-6.3 3.4.1.1.1.3.2.4zm.6 1.3c2.3-.6 4.2-2.1 6.3-3.4-.1-.1-.2-.3-.2-.4-2 1.3-4 2.8-6.3 3.4.1.1.1.3.2.4zm4.1-.2c-.1-.2-.2-.3-.2-.5-1.1.7-2.3 1.3-3.5 1.6.1.2.1.3.2.5 1.2-.4 2.4-1 3.5-1.6zm2.6-5c.1.2.3.4.4.5.1 0 .2.1.2.2l-.4.2.3.6.5-.2c.1.4.1.8-.1 1.1l.3.5 2.8-1.3-.3-.6-1.8.8c.1-.4.1-.6 0-1l.8-.4-.3-.6-.8.4c-.1-.1-.2-.2-.3-.2l-.3-.3c-.1-.2 0-.4.4-.6.3-.2.7-.2 1.1-.1l.2-.8c-.5-.2-1.1-.1-1.6.1-1 .5-1.4 1.1-1.1 1.7z"/><path d="M16 0v16H0V0h16zM1.7 4h5.7v-.6H1.7V4zm0 1.7h5.7v-.6H1.7v.6zm0 1.7h5.7v-.5H1.7v.5zm12.6 1.2H1.7v.6h12.6v-.6zm0 1.7H1.7v.6h12.6v-.6zm0 1.7H1.7v.6h12.6V12zm0 1.7H1.7v.6h12.6v-.6zM7.1 1.4c0 .5.4.9.9.9s.9-.4.9-.9c0-.4-.4-.8-.9-.8s-.9.4-.9.8zm7.2 2H8.6v4h5.7v-4z"/><path d="M13.7 13.1l-.6.6 2.3 2.3H.6l2.3-2.3-.6-.6L0 15.4V5.7L8 12l8-6.3v9.7l-2.3-2.3zM2.9 6.9L.6 5.1 8 0l7.4 5.1-2.3 1.7V4.6H2.9v2.3zm7.4-.6H5.7v-.6h4.6v.6zm0 1.1H5.7v-.5h4.6v.5zM5.7 8h4.6v.6H5.7V8z"/><path d="M3.8 10l1.1 1.1-3.8 3.8c-.5-.5-1-1.5-1-2.8 0-2.2 1.1-5 4.1-8C7 1.1 9.8 0 12 0c1.3 0 2.3.5 2.8 1L11 4.8l-1-1c-.8.5-2.2 1.1-3.7 2.6-1.4 1.4-2 2.8-2.5 3.6zm-.6 5.7c-.2.2-.4.3-.6.3-.2 0-.5-.1-.7-.3l-.4-.4 3.8-3.8.4.4c.2.2.3.5.3.7 0 .2-.1.4-.2.6l-2.6 2.5zm10-10c-.2.2-.4.3-.6.3-.2 0-.5-.1-.7-.3l-.4-.4 3.8-3.8.4.4c.2.2.3.4.3.7 0 .2-.1.4-.2.6l-2.6 2.5z"/><path d="M16 5.7C16 9 8 16 8 16S0 9 0 5.7C0 1.6 3.6 0 8 0s8 1.6 8 5.7zm-5.7-.6c0-1.3-1-2.3-2.3-2.3s-2.3 1-2.3 2.3c0 1.3 1 2.3 2.3 2.3s2.3-1 2.3-2.3z"/><path d="M3.4 8.6h4V16H0V7.4C0 2.7 2.3 0 6.3 0v3.7c-1.7 0-2.9 1.5-2.9 3.6v1.3zm12.6 0V16H8.6V7.4c0-4.8 2.3-7.4 6.3-7.4v3.7c-1.7 0-2.9 1.5-2.9 3.6v1.3h4z"/></svg>