<svg xmlns="http://www.w3.org/2000/svg" viewBox="0 0 16 16">
  <path d="M14.9 7.7c.4.8.7 1.6 1.1 2.5-4.9.6-8 5.2-13 5.8-1-2.2-2-4.5-3-6.7L1.2 9 3 13.1l.5-.1c2.6-.3 4.6-1.6 6.6-2.9 1.6-1 3.1-1.9 4.8-2.4zM3.5 12.3c-1-2.2-2-4.5-3-6.7C5.3 5.1 8.2.5 13 0c1 2.2 2 4.5 3 6.7-4.8.5-7.7 5.1-12.5 5.6zm-.7-4.7C5.1 7 7 5.5 9.1 4.2c-.1-.1-.2-.3-.2-.4-2 1.3-4 2.8-6.3 3.4.1.1.1.3.2.4zm.6 1.3c2.3-.6 4.2-2.1 6.3-3.4-.1-.1-.2-.3-.2-.4-2 1.3-4 2.8-6.3 3.4.1.1.1.3.2.4zm4.1-.2c-.1-.2-.2-.3-.2-.5-1.1.7-2.3 1.3-3.5 1.6.1.2.1.3.2.5 1.2-.4 2.4-1 3.5-1.6zm2.6-5c.1.2.3.4.4.5.1 0 .2.1.2.2l-.4.2.3.6.5-.2c.1.4.1.8-.1 1.1l.3.5 2.8-1.3-.3-.6-1.8.8c.1-.4.1-.6 0-1l.8-.4-.3-.6-.8.4c-.1-.1-.2-.2-.3-.2l-.3-.3c-.1-.2 0-.4.4-.6.3-.2.7-.2 1.1-.1l.2-.8c-.5-.2-1.1-.1-1.6.1-1 .5-1.4 1.1-1.1 1.7z" fill="black"/>
</svg>