<svg xmlns="http://www.w3.org/2000/svg" viewBox="0 0 16 16">
  <path d="M16 13.1c0 1.6-1.3 2.9-2.9 2.9s-2.9-1.3-2.9-2.9V13l-5.6-2.8c-.5.4-1.1.7-1.8.7C1.3 10.9 0 9.6 0 8s1.3-2.9 2.9-2.9c.7 0 1.3.2 1.8.7L10.3 3v-.1c0-1.6 1.3-2.9 2.9-2.9S16 1.3 16 2.9s-1.3 2.9-2.9 2.9c-.7 0-1.3-.2-1.8-.7L5.7 7.9v.2l5.6 2.8c.5-.4 1.1-.7 1.8-.7 1.6.1 2.9 1.4 2.9 2.9zM4.6 8c0-.9-.8-1.7-1.7-1.7S1.1 7.1 1.1 8s.8 1.7 1.7 1.7S4.6 8.9 4.6 8zm6.8-5.1c0 .9.8 1.7 1.7 1.7s1.7-.8 1.7-1.7-.8-1.7-1.7-1.7-1.7.7-1.7 1.7zm3.5 10.2c0-.9-.8-1.7-1.7-1.7s-1.7.8-1.7 1.7.8 1.7 1.7 1.7 1.7-.7 1.7-1.7z" fill="black"/>
</svg>