<svg xmlns="http://www.w3.org/2000/svg" viewBox="0 0 16 16">
  <path d="M16 2.9v2.3H0V2.9h5.3L8 0l2.7 2.9H16zM0 5.7h16V16H0V5.7zm1.7 2.9h1.1V7.4H1.7v1.2zm0 2.8h1.1v-1.1H1.7v1.1zm0 2.9h1.1v-1.1H1.7v1.1zm2.9-5.7h1.1V7.4H4.6v1.2zm0 2.8h1.1v-1.1H4.6v1.1zm0 2.9h1.1v-1.1H4.6v1.1zM6.1 2.9h3.7L8 .9l-1.9 2zm1.3 5.7h1.1V7.4H7.4v1.2zm0 2.8h1.1v-1.1H7.4v1.1zm0 2.9h1.1v-1.1H7.4v1.1zM9.7 12H12V9.7H9.7V12zm.6-3.4h1.1V7.4h-1.1v1.2zm0 1.7h1.1v1.1h-1.1v-1.1zm2.8-1.7h1.1V7.4h-1.1v1.2zm0 2.8h1.1v-1.1h-1.1v1.1z" fill="black"/>
</svg>